<svg width="28" height="90" viewBox="0 0 28 90" fill="none" xmlns="http://www.w3.org/2000/svg">
<path d="M11.8948 50.3041L11.4328 49.1561L14.4288 45.7821C14.5875 45.6141 14.7508 45.4228 14.9188 45.2081C15.0962 44.9841 15.2642 44.7555 15.4228 44.5221C15.5815 44.2888 15.7075 44.0601 15.8008 43.8361C15.9035 43.6028 15.9548 43.3835 15.9548 43.1781C15.9548 42.8795 15.8942 42.6275 15.7728 42.4221C15.6608 42.2075 15.4928 42.0441 15.2688 41.9321C15.0542 41.8201 14.7928 41.7641 14.4848 41.7641C14.2142 41.7641 13.9482 41.8435 13.6868 42.0021C13.4255 42.1608 13.1875 42.3848 12.9728 42.6741C12.7582 42.9635 12.5902 43.2995 12.4688 43.6821L11.3068 42.9541C11.4655 42.4128 11.7035 41.9508 12.0208 41.5681C12.3475 41.1761 12.7348 40.8775 13.1828 40.6721C13.6402 40.4668 14.1348 40.3641 14.6668 40.3641C15.2175 40.3641 15.7075 40.4808 16.1368 40.7141C16.5662 40.9381 16.9022 41.2555 17.1448 41.6661C17.3875 42.0675 17.5088 42.5341 17.5088 43.0661C17.5088 43.3368 17.4715 43.6168 17.3968 43.9061C17.3222 44.1861 17.2008 44.4801 17.0328 44.7881C16.8742 45.0961 16.6688 45.4228 16.4168 45.7681C16.1648 46.1041 15.8615 46.4635 15.5068 46.8461L13.2808 49.2681L13.0008 48.8481H17.8168V50.3041H11.8948Z" fill="#323232"/>
<circle cx="14" cy="75.5" r="13.5" stroke="#EBEBEB"/>
<path d="M9.91672 75.5H18.0834" stroke="#323232" stroke-width="1.5" stroke-linecap="round" stroke-linejoin="round"/>
<circle cx="14" cy="14.5" r="13.5" stroke="#EBEBEB"/>
<path d="M14 10.4167V18.5833M9.91672 14.5H18.0834" stroke="#323232" stroke-width="1.5" stroke-linecap="round" stroke-linejoin="round"/>
</svg>
